<svg version="1.1" viewBox="0 0 12800 500"
		xmlns="http://www.w3.org/2000/svg"
		preserveAspectRatio="xMidYMid slice">
	<style>
		#alchemy {
			stroke: #9FA8DA;
			stroke-width: 4;
			fill: none;
			stroke-linecap: butt;
			stroke-linejoin: bevel;
		}
	</style>

	<symbol id="alchemy" viewBox="0 0 600 600" width="600" height="600">
		<!-- Cerchio alchemico -->
		<g transform="translate(300 300)">

			<circle cx="0" cy="0" r="250"
				stroke-dasharray="1570.796" stroke-dashoffset="1570.796">
				<animate
					attributeName="stroke-dashoffset"
					values="1570.796; 0"
					keyTimes="0; 1"
					dur="3s"
					fill="freeze"
				/>
			</circle>

			<circle cx="0" cy="0" r="220"
				stroke-dasharray="1382.301" stroke-dashoffset="1382.301">
				<animate
					attributeName="stroke-dashoffset"
					values="1382.301; 0"
					keyTimes="0; 1"
					dur="3s"
					fill="freeze"
				/>
			</circle>

			<!-- Rotazione interna -->
			<g>
				<animateTransform
					attributeName="transform"
					type="rotate"
					from="0"
					to="360"
					begin="6s"
					dur="6s"
					end="10s"
					fill="freeze"
				/>
				
				<!-- Esagono -->
				<polygon points="0,220 190.526,110 190.526,-110 0,-220 -190.526,-110 -190.526,110"
					stroke-dasharray="1320" stroke-dashoffset="1320">
					<animate
						attributeName="stroke-dashoffset"
						values="1320; 0"
						keyTimes="0; 1"
						begin="3s"
						dur="3s"
						fill="freeze"
					/>
				</polygon>

				<!-- Triangolo -->
				<g stroke-dasharray="318.756" stroke-dashoffset="318.756">
					<animate
						attributeName="stroke-dashoffset"
						values="318.756; 0"
						keyTimes="0; 1"
						begin="3s"
						dur="3s"
						fill="freeze"
					/>
					<polyline points="-35,-110 -190.526,-110 -112.763,24.689"/>
					<polyline points="-77.763,85.311 0,220 77.763,85.311"/>
					<polyline points="112.763,24.689 190.526,-110 35,-110"/>
				</g>

				<!-- Piccoli cerchi -->
				<g stroke-dasharray="219.911" stroke-dashoffset="219.911">
					<animate
						attributeName="stroke-dashoffset"
						values="219.911; 0"
						keyTimes="0; 1"
						begin="3s"
						dur="3s"
						fill="freeze"
					/>
					<circle cx="-95.263" cy="55" r="35"/>
					<circle cx="95.263" cy="55" r="35"/>
					<circle cx="0" cy="-110" r="35"/>
				</g>

				<!-- Linee diagonali -->
				<g stroke-dasharray="335" stroke-dashoffset="335">
					<animate
						attributeName="stroke-dashoffset"
						values="335; 0"
						keyTimes="0; 1"
						begin="6s"
						dur="2s"
						fill="freeze"
					/>

					<path d="M 0 220 L 0 -75 M 0 -145 L 0 -220"/>
					<path d="M 190.526 -110 L -64.952 37.5 M -125.574 72.5 L -190.526 110"/>
					<path d="M -190.526 -110 L 64.952 37.5 M 125.574 72.5 L 190.526 110"/>
				</g>

				<!-- Archi agli angoli -->
				<g stroke-dasharray="230.383" stroke-dashoffset="230.383">
					<animate
						attributeName="stroke-dashoffset"
						values="230.383; 0"
						keyTimes="0; 1"
						begin="6s"
						dur="2s"
						fill="freeze"
					/>
					<path d="M -95.263 165 A 110 110 0 0 1 95.263 165"/>
					<path d="M -95.262 -165 A 110 110 0 0 1 -190.526 0"/>
					<path d="M 190.526 0 A 110 110 0 0 1 95.262 -165"/>
				</g>

			
				<!-- Cerchio medio -->
				<circle cx="0" cy="0" r="180"
					stroke-dasharray="1130.973" stroke-dashoffset="1130.973">
					<animate
						attributeName="stroke-dashoffset"
						values="1130.973; 0"
						keyTimes="0; 1"
						begin="8s"
						dur="2s"
						fill="freeze"
					/>
				</circle>
				
				<!-- Cerchio piccolo -->
				<circle cx="0" cy="0" r="60"
				stroke-dasharray="376.991" stroke-dashoffset="376.991">
					<animate
						attributeName="stroke-dashoffset"
						values="376.991; 0"
						keyTimes="0; 1"
						begin="8s"
						dur="2s"
						fill="freeze"
					/>
				</circle>
			</g>
		</g>
	</symbol>

	<!-- Piano -->
	<g transform="translate(6400 250)">	

		<!-- Sfondo -->
		<g fill="#212121" filter="drop-shadow(0 0 10px #212121)" stroke-width="10">
			<circle cx="0" cy="0" r="210"/>

			<g stroke="#212121" 
				stroke-dasharray="6190" stroke-dashoffset="6190">
				<animate
					attributeName="stroke-dashoffset"
					values="6190; 0"
					keyTimes="0; 1"
					dur="1s"
					fill="freeze"
				/>
				<path d="M -210,0 L -6400,0"/>
				<path d="M 210,0 L 6400,0"/>
			</g>
		</g>
		<use 
			href="#alchemy" 
			x="-300" y="-300" 
			transform="scale(0.8)"/>
	</g>
	
</svg>